<svg width="318" height="55" viewBox="0 0 318 55" fill="none" xmlns="http://www.w3.org/2000/svg">
<mask id="path-1-inside-1_1_263" fill="white">
<path fill-rule="evenodd" clip-rule="evenodd" d="M27.5 0C12.3122 0 0 12.3122 0 27.5C0 42.6878 12.3121 55 27.5 55H289.176C273.988 55 261.676 42.6878 261.676 27.5C261.676 12.3122 273.988 0 289.176 0H27.5Z"/>
</mask>
<path fill-rule="evenodd" clip-rule="evenodd" d="M27.5 0C12.3122 0 0 12.3122 0 27.5C0 42.6878 12.3121 55 27.5 55H289.176C273.988 55 261.676 42.6878 261.676 27.5C261.676 12.3122 273.988 0 289.176 0H27.5Z" fill="#F5D18C"/>
<path d="M1 27.5C1 12.8645 12.8645 1 27.5 1V-1C11.7599 -1 -1 11.7599 -1 27.5H1ZM27.5 54C12.8644 54 1 42.1355 1 27.5H-1C-1 43.2401 11.7599 56 27.5 56V54ZM289.176 54H27.5V56H289.176V54ZM289.176 54C274.541 54 262.676 42.1355 262.676 27.5H260.676C260.676 43.2401 273.436 56 289.176 56V54ZM262.676 27.5C262.676 12.8645 274.541 1 289.176 1V-1C273.436 -1 260.676 11.7599 260.676 27.5H262.676ZM27.5 1H289.176V-1H27.5V1Z" fill="#2A2A2A" mask="url(#path-1-inside-1_1_263)"/>
<circle cx="291.667" cy="27.6667" r="25.6667" fill="#2A2A2A"/>
<path d="M52.5801 19.4473C53.0832 19.6988 53.3734 20.0955 53.4508 20.6373C53.5476 21.1791 53.4121 21.6725 53.0445 22.1176C52.7929 22.4659 52.464 22.6594 52.0576 22.6981C51.6706 22.7368 51.2739 22.6594 50.8676 22.4659C50.4032 22.253 49.9098 22.0886 49.3873 21.9725C48.8842 21.8564 48.3521 21.7983 47.791 21.7983C46.7461 21.7983 45.8076 21.9628 44.9756 22.2917C44.1629 22.6207 43.4663 23.0947 42.8858 23.7139C42.3053 24.3138 41.8602 25.0297 41.5506 25.8618C41.2604 26.6938 41.1153 27.6129 41.1153 28.6191C41.1153 29.7995 41.2797 30.825 41.6087 31.6958C41.957 32.5665 42.431 33.2921 43.0309 33.8726C43.6307 34.4531 44.337 34.8885 45.1497 35.1788C45.9624 35.4497 46.8428 35.5851 47.791 35.5851C48.3134 35.5851 48.8359 35.5367 49.3583 35.44C49.8808 35.3432 50.3839 35.1691 50.8676 34.9175C51.2739 34.724 51.6706 34.6563 52.0576 34.7144C52.464 34.7724 52.8026 34.9756 53.0735 35.3239C53.4605 35.8076 53.5959 36.3107 53.4798 36.8332C53.3831 37.3363 53.0928 37.7039 52.6091 37.9361C52.106 38.1877 51.5835 38.4005 51.0417 38.5747C50.5193 38.7295 49.9872 38.8456 49.4454 38.923C48.9036 39.0197 48.3521 39.0681 47.791 39.0681C46.3978 39.0681 45.0723 38.8456 43.8146 38.4005C42.5762 37.9555 41.4636 37.2976 40.4767 36.4268C39.5092 35.5561 38.7449 34.4725 38.1837 33.176C37.6226 31.8602 37.342 30.3413 37.342 28.6191C37.342 27.1292 37.5936 25.7554 38.0967 24.4976C38.6191 23.2399 39.3447 22.1563 40.2735 21.2468C41.2217 20.318 42.3343 19.6021 43.6114 19.099C44.8885 18.5765 46.2817 18.3153 47.791 18.3153C48.6424 18.3153 49.4744 18.4121 50.2871 18.6056C51.0998 18.7991 51.8641 19.0796 52.5801 19.4473ZM71.3287 31.0282C71.3287 32.6149 70.9708 34.0178 70.2548 35.2368C69.5582 36.4365 68.6101 37.375 67.4104 38.0522C66.2301 38.7295 64.9046 39.0681 63.434 39.0681C61.9634 39.0681 60.6283 38.7295 59.4286 38.0522C58.2482 37.375 57.3001 36.4365 56.5841 35.2368C55.8875 34.0178 55.5392 32.6149 55.5392 31.0282C55.5392 29.4415 55.8875 28.0483 56.5841 26.8486C57.3001 25.6296 58.2482 24.6814 59.4286 24.0042C60.6283 23.3076 61.9634 22.9593 63.434 22.9593C64.9046 22.9593 66.2301 23.3076 67.4104 24.0042C68.6101 24.6814 69.5582 25.6296 70.2548 26.8486C70.9708 28.0483 71.3287 29.4415 71.3287 31.0282ZM67.8458 31.0282C67.8458 30.0414 67.6426 29.19 67.2362 28.474C66.8492 27.7387 66.3171 27.1679 65.6399 26.7615C64.982 26.3552 64.2467 26.152 63.434 26.152C62.6213 26.152 61.8763 26.3552 61.1991 26.7615C60.5412 27.1679 60.0091 27.7387 59.6027 28.474C59.2157 29.19 59.0222 30.0414 59.0222 31.0282C59.0222 31.9957 59.2157 32.8471 59.6027 33.5824C60.0091 34.2983 60.5412 34.8595 61.1991 35.2658C61.8763 35.6722 62.6213 35.8753 63.434 35.8753C64.2467 35.8753 64.982 35.6722 65.6399 35.2658C66.3171 34.8595 66.8492 34.2983 67.2362 33.5824C67.6426 32.8471 67.8458 31.9957 67.8458 31.0282ZM82.3589 17.2995C82.7846 17.2995 83.2006 17.3575 83.6069 17.4736C84.0133 17.5897 84.3519 17.7832 84.6228 18.0541C84.8937 18.3056 85.0291 18.6443 85.0291 19.07C85.0291 19.5537 84.884 19.9407 84.5938 20.231C84.3229 20.5019 84.0036 20.6373 83.636 20.6373C83.4618 20.6373 83.2006 20.5986 82.8523 20.5212C82.504 20.4245 82.1654 20.3761 81.8364 20.3761C81.3527 20.3761 80.9753 20.4825 80.7044 20.6954C80.4529 20.9082 80.2787 21.1598 80.182 21.45C80.0853 21.7209 80.0369 21.9628 80.0369 22.1756V37.0073C80.0369 37.5104 79.8724 37.9361 79.5435 38.2844C79.2145 38.6134 78.7985 38.7778 78.2954 38.7778C77.7923 38.7778 77.3763 38.6134 77.0473 38.2844C76.7184 37.9361 76.5539 37.5104 76.5539 37.0073V22.2046C76.5539 20.8308 77.0376 19.6698 78.0051 18.7217C78.9726 17.7735 80.4239 17.2995 82.3589 17.2995ZM82.6781 23.5398C83.1425 23.5398 83.5295 23.6946 83.8391 24.0042C84.1487 24.2944 84.3035 24.6718 84.3035 25.1362C84.3035 25.6006 84.1487 25.9876 83.8391 26.2972C83.5295 26.5874 83.1425 26.7325 82.6781 26.7325H74.9866C74.5222 26.7325 74.1352 26.5874 73.8256 26.2972C73.516 25.9876 73.3612 25.6006 73.3612 25.1362C73.3612 24.6718 73.516 24.2944 73.8256 24.0042C74.1352 23.6946 74.5222 23.5398 74.9866 23.5398H82.6781ZM95.0427 17.2995C95.4684 17.2995 95.8844 17.3575 96.2908 17.4736C96.6971 17.5897 97.0358 17.7832 97.3067 18.0541C97.5776 18.3056 97.713 18.6443 97.713 19.07C97.713 19.5537 97.5679 19.9407 97.2776 20.231C97.0067 20.5019 96.6875 20.6373 96.3198 20.6373C96.1457 20.6373 95.8844 20.5986 95.5361 20.5212C95.1878 20.4245 94.8492 20.3761 94.5203 20.3761C94.0365 20.3761 93.6592 20.4825 93.3883 20.6954C93.1368 20.9082 92.9626 21.1598 92.8659 21.45C92.7691 21.7209 92.7207 21.9628 92.7207 22.1756V37.0073C92.7207 37.5104 92.5563 37.9361 92.2273 38.2844C91.8984 38.6134 91.4823 38.7778 90.9792 38.7778C90.4761 38.7778 90.0601 38.6134 89.7312 38.2844C89.4022 37.9361 89.2377 37.5104 89.2377 37.0073V22.2046C89.2377 20.8308 89.7215 19.6698 90.689 18.7217C91.6565 17.7735 93.1077 17.2995 95.0427 17.2995ZM95.362 23.5398C95.8264 23.5398 96.2134 23.6946 96.523 24.0042C96.8326 24.2944 96.9874 24.6718 96.9874 25.1362C96.9874 25.6006 96.8326 25.9876 96.523 26.2972C96.2134 26.5874 95.8264 26.7325 95.362 26.7325H87.6704C87.206 26.7325 86.819 26.5874 86.5094 26.2972C86.1998 25.9876 86.045 25.6006 86.045 25.1362C86.045 24.6718 86.1998 24.2944 86.5094 24.0042C86.819 23.6946 87.206 23.5398 87.6704 23.5398H95.362ZM107.06 39.0681C105.415 39.0681 103.983 38.7295 102.764 38.0522C101.564 37.3556 100.636 36.4171 99.9776 35.2368C99.3391 34.0565 99.0198 32.7213 99.0198 31.2314C99.0198 29.4899 99.3681 28.0096 100.065 26.7906C100.781 25.5522 101.709 24.604 102.851 23.9461C103.993 23.2882 105.202 22.9593 106.479 22.9593C107.466 22.9593 108.395 23.1625 109.266 23.5688C110.156 23.9752 110.939 24.5363 111.617 25.2523C112.294 25.9489 112.826 26.7615 113.213 27.6903C113.619 28.6191 113.822 29.606 113.822 30.6509C113.803 31.1153 113.619 31.4926 113.271 31.7828C112.923 32.0731 112.516 32.2182 112.052 32.2182H100.964L100.094 29.3157H110.746L110.107 29.8962V29.1126C110.069 28.5514 109.865 28.0483 109.498 27.6033C109.149 27.1582 108.704 26.8099 108.163 26.5584C107.64 26.2875 107.079 26.152 106.479 26.152C105.899 26.152 105.357 26.2294 104.854 26.3842C104.351 26.539 103.915 26.8002 103.548 27.1679C103.18 27.5355 102.89 28.029 102.677 28.6482C102.464 29.2674 102.358 30.051 102.358 30.9992C102.358 32.0441 102.571 32.9342 102.996 33.6695C103.441 34.3854 104.002 34.9369 104.68 35.3239C105.376 35.6915 106.112 35.8753 106.886 35.8753C107.601 35.8753 108.172 35.8173 108.598 35.7012C109.024 35.5851 109.362 35.4497 109.614 35.2949C109.885 35.1207 110.127 34.9756 110.339 34.8595C110.688 34.6853 111.017 34.5983 111.326 34.5983C111.752 34.5983 112.1 34.7434 112.371 35.0336C112.661 35.3239 112.807 35.6625 112.807 36.0495C112.807 36.5719 112.536 37.046 111.994 37.4717C111.491 37.8974 110.785 38.2747 109.875 38.6037C108.966 38.9133 108.027 39.0681 107.06 39.0681ZM124.18 39.0681C122.535 39.0681 121.103 38.7295 119.884 38.0522C118.684 37.3556 117.756 36.4171 117.098 35.2368C116.459 34.0565 116.14 32.7213 116.14 31.2314C116.14 29.4899 116.488 28.0096 117.185 26.7906C117.901 25.5522 118.83 24.604 119.971 23.9461C121.113 23.2882 122.322 22.9593 123.599 22.9593C124.586 22.9593 125.515 23.1625 126.386 23.5688C127.276 23.9752 128.059 24.5363 128.737 25.2523C129.414 25.9489 129.946 26.7615 130.333 27.6903C130.739 28.6191 130.943 29.606 130.943 30.6509C130.923 31.1153 130.739 31.4926 130.391 31.7828C130.043 32.0731 129.636 32.2182 129.172 32.2182H118.085L117.214 29.3157H127.866L127.227 29.8962V29.1126C127.189 28.5514 126.986 28.0483 126.618 27.6033C126.27 27.1582 125.825 26.8099 125.283 26.5584C124.76 26.2875 124.199 26.152 123.599 26.152C123.019 26.152 122.477 26.2294 121.974 26.3842C121.471 26.539 121.035 26.8002 120.668 27.1679C120.3 27.5355 120.01 28.029 119.797 28.6482C119.584 29.2674 119.478 30.051 119.478 30.9992C119.478 32.0441 119.691 32.9342 120.116 33.6695C120.561 34.3854 121.123 34.9369 121.8 35.3239C122.496 35.6915 123.232 35.8753 124.006 35.8753C124.722 35.8753 125.292 35.8173 125.718 35.7012C126.144 35.5851 126.482 35.4497 126.734 35.2949C127.005 35.1207 127.247 34.9756 127.46 34.8595C127.808 34.6853 128.137 34.5983 128.446 34.5983C128.872 34.5983 129.22 34.7434 129.491 35.0336C129.782 35.3239 129.927 35.6625 129.927 36.0495C129.927 36.5719 129.656 37.046 129.114 37.4717C128.611 37.8974 127.905 38.2747 126.995 38.6037C126.086 38.9133 125.147 39.0681 124.18 39.0681ZM144.239 18.4314C144.51 18.4314 144.791 18.5088 145.081 18.6636C145.391 18.7991 145.623 18.9829 145.778 19.2151L152.831 30.0704L151.379 30.0123L158.607 19.2151C158.974 18.6926 159.448 18.4314 160.029 18.4314C160.493 18.4314 160.909 18.5959 161.277 18.9248C161.645 19.2538 161.828 19.6795 161.828 20.2019V37.0073C161.828 37.5104 161.664 37.9361 161.335 38.2844C161.006 38.6134 160.571 38.7778 160.029 38.7778C159.487 38.7778 159.042 38.6134 158.694 38.2844C158.365 37.9361 158.2 37.5104 158.2 37.0073V23.3366L159.332 23.5978L153.411 32.6246C153.237 32.8374 153.015 33.0212 152.744 33.176C152.492 33.3308 152.231 33.3986 151.96 33.3792C151.708 33.3986 151.447 33.3308 151.176 33.176C150.925 33.0212 150.712 32.8374 150.538 32.6246L144.994 23.8591L145.749 22.3207V37.0073C145.749 37.5104 145.594 37.9361 145.284 38.2844C144.975 38.6134 144.568 38.7778 144.065 38.7778C143.581 38.7778 143.185 38.6134 142.875 38.2844C142.566 37.9361 142.411 37.5104 142.411 37.0073V20.2019C142.411 19.7182 142.585 19.3022 142.933 18.9539C143.301 18.6056 143.736 18.4314 144.239 18.4314ZM178.615 22.9593C179.118 22.9593 179.534 23.1238 179.863 23.4527C180.192 23.7817 180.356 24.2074 180.356 24.7298V37.0073C180.356 37.5104 180.192 37.9361 179.863 38.2844C179.534 38.6134 179.118 38.7778 178.615 38.7778C178.111 38.7778 177.695 38.6134 177.366 38.2844C177.037 37.9361 176.873 37.5104 176.873 37.0073V35.5851L177.512 35.8463C177.512 36.0979 177.376 36.4075 177.105 36.7751C176.834 37.1234 176.467 37.4717 176.002 37.82C175.538 38.1683 174.986 38.4682 174.348 38.7198C173.729 38.952 173.051 39.0681 172.316 39.0681C170.981 39.0681 169.772 38.7295 168.688 38.0522C167.604 37.3556 166.743 36.4075 166.105 35.2078C165.486 33.9887 165.176 32.5955 165.176 31.0282C165.176 29.4415 165.486 28.0483 166.105 26.8486C166.743 25.6296 167.595 24.6814 168.659 24.0042C169.723 23.3076 170.904 22.9593 172.2 22.9593C173.032 22.9593 173.796 23.0851 174.493 23.3366C175.19 23.5882 175.789 23.9074 176.293 24.2944C176.815 24.6814 177.212 25.0781 177.483 25.4845C177.773 25.8715 177.918 26.2004 177.918 26.4713L176.873 26.8486V24.7298C176.873 24.2267 177.037 23.8107 177.366 23.4817C177.695 23.1334 178.111 22.9593 178.615 22.9593ZM172.751 35.8753C173.603 35.8753 174.348 35.6625 174.986 35.2368C175.625 34.8111 176.118 34.2306 176.467 33.4953C176.834 32.76 177.018 31.9376 177.018 31.0282C177.018 30.0994 176.834 29.2674 176.467 28.5321C176.118 27.7968 175.625 27.2163 174.986 26.7906C174.348 26.3649 173.603 26.152 172.751 26.152C171.919 26.152 171.184 26.3649 170.546 26.7906C169.907 27.2163 169.404 27.7968 169.036 28.5321C168.688 29.2674 168.514 30.0994 168.514 31.0282C168.514 31.9376 168.688 32.76 169.036 33.4953C169.404 34.2306 169.907 34.8111 170.546 35.2368C171.184 35.6625 171.919 35.8753 172.751 35.8753ZM191.035 22.9593C192.138 22.9593 193.096 23.0754 193.909 23.3076C194.741 23.5398 195.379 23.8687 195.824 24.2944C196.289 24.7008 196.521 25.1942 196.521 25.7747C196.521 26.1617 196.405 26.5294 196.173 26.8776C195.94 27.2066 195.602 27.3711 195.157 27.3711C194.847 27.3711 194.586 27.3324 194.373 27.255C194.179 27.1582 194.005 27.0421 193.851 26.9067C193.696 26.7712 193.512 26.6455 193.299 26.5294C193.106 26.4133 192.806 26.3262 192.399 26.2681C192.012 26.1907 191.722 26.152 191.529 26.152C190.542 26.152 189.7 26.3649 189.003 26.7906C188.326 27.2163 187.804 27.7968 187.436 28.5321C187.068 29.248 186.885 30.0801 186.885 31.0282C186.885 31.957 187.068 32.789 187.436 33.5243C187.823 34.2403 188.345 34.8111 189.003 35.2368C189.681 35.6625 190.455 35.8753 191.325 35.8753C191.809 35.8753 192.225 35.8463 192.573 35.7883C192.922 35.7302 193.212 35.6431 193.444 35.5271C193.715 35.3723 193.957 35.2078 194.17 35.0336C194.383 34.8595 194.702 34.7724 195.128 34.7724C195.631 34.7724 196.018 34.9369 196.289 35.2658C196.56 35.5754 196.695 35.9624 196.695 36.4268C196.695 36.9106 196.424 37.3556 195.882 37.762C195.34 38.149 194.625 38.4682 193.734 38.7198C192.864 38.952 191.916 39.0681 190.89 39.0681C189.361 39.0681 188.036 38.7198 186.914 38.0232C185.791 37.3072 184.921 36.3397 184.301 35.1207C183.702 33.9017 183.402 32.5375 183.402 31.0282C183.402 29.4415 183.721 28.0483 184.359 26.8486C185.017 25.6296 185.917 24.6814 187.059 24.0042C188.22 23.3076 189.545 22.9593 191.035 22.9593ZM207.362 22.9593C208.756 22.9593 209.81 23.2592 210.526 23.8591C211.261 24.4589 211.765 25.2619 212.035 26.2681C212.306 27.255 212.442 28.3579 212.442 29.577V37.0073C212.442 37.5104 212.277 37.9361 211.948 38.2844C211.619 38.6134 211.203 38.7778 210.7 38.7778C210.197 38.7778 209.781 38.6134 209.452 38.2844C209.123 37.9361 208.959 37.5104 208.959 37.0073V29.577C208.959 28.9384 208.881 28.3676 208.727 27.8645C208.572 27.342 208.291 26.926 207.885 26.6164C207.479 26.3068 206.898 26.152 206.143 26.152C205.408 26.152 204.779 26.3068 204.257 26.6164C203.734 26.926 203.338 27.342 203.067 27.8645C202.815 28.3676 202.689 28.9384 202.689 29.577V37.0073C202.689 37.5104 202.525 37.9361 202.196 38.2844C201.867 38.6134 201.451 38.7778 200.948 38.7778C200.445 38.7778 200.029 38.6134 199.7 38.2844C199.371 37.9361 199.206 37.5104 199.206 37.0073V19.07C199.206 18.5669 199.371 18.1508 199.7 17.8219C200.029 17.4736 200.445 17.2995 200.948 17.2995C201.451 17.2995 201.867 17.4736 202.196 17.8219C202.525 18.1508 202.689 18.5669 202.689 19.07V26.2681L202.254 26.1811C202.428 25.8521 202.67 25.5038 202.98 25.1362C203.289 24.7492 203.667 24.3912 204.112 24.0622C204.557 23.7333 205.05 23.4721 205.592 23.2786C206.134 23.0657 206.724 22.9593 207.362 22.9593ZM219.493 37.0073C219.493 37.5104 219.329 37.9361 219 38.2844C218.671 38.6134 218.255 38.7778 217.752 38.7778C217.248 38.7778 216.832 38.6134 216.503 38.2844C216.175 37.9361 216.01 37.5104 216.01 37.0073V25.0201C216.01 24.517 216.175 24.1009 216.503 23.772C216.832 23.4237 217.248 23.2495 217.752 23.2495C218.255 23.2495 218.671 23.4237 219 23.772C219.329 24.1009 219.493 24.517 219.493 25.0201V37.0073ZM217.723 21.3629C217.065 21.3629 216.6 21.2565 216.329 21.0437C216.058 20.8308 215.923 20.4535 215.923 19.9117V19.3602C215.923 18.7991 216.068 18.4217 216.358 18.2282C216.668 18.0154 217.132 17.909 217.752 17.909C218.429 17.909 218.903 18.0154 219.174 18.2282C219.445 18.4411 219.58 18.8184 219.58 19.3602V19.9117C219.58 20.4728 219.435 20.8598 219.145 21.0727C218.855 21.2662 218.38 21.3629 217.723 21.3629ZM231.374 22.9593C232.806 22.9593 233.889 23.2592 234.625 23.8591C235.379 24.4589 235.892 25.2619 236.163 26.2681C236.453 27.255 236.598 28.3579 236.598 29.577V37.0073C236.598 37.5104 236.434 37.9361 236.105 38.2844C235.776 38.6134 235.36 38.7778 234.857 38.7778C234.354 38.7778 233.938 38.6134 233.609 38.2844C233.28 37.9361 233.115 37.5104 233.115 37.0073V29.577C233.115 28.9384 233.028 28.3676 232.854 27.8645C232.699 27.342 232.409 26.926 231.983 26.6164C231.558 26.3068 230.948 26.152 230.155 26.152C229.381 26.152 228.723 26.3068 228.181 26.6164C227.659 26.926 227.252 27.342 226.962 27.8645C226.691 28.3676 226.556 28.9384 226.556 29.577V37.0073C226.556 37.5104 226.391 37.9361 226.062 38.2844C225.733 38.6134 225.317 38.7778 224.814 38.7778C224.311 38.7778 223.895 38.6134 223.566 38.2844C223.237 37.9361 223.073 37.5104 223.073 37.0073V25.0201C223.073 24.517 223.237 24.1009 223.566 23.772C223.895 23.4237 224.311 23.2495 224.814 23.2495C225.317 23.2495 225.733 23.4237 226.062 23.772C226.391 24.1009 226.556 24.517 226.556 25.0201V26.2681L226.12 26.1811C226.294 25.8521 226.546 25.5038 226.875 25.1362C227.204 24.7492 227.591 24.3912 228.036 24.0622C228.481 23.7333 228.984 23.4721 229.545 23.2786C230.106 23.0657 230.716 22.9593 231.374 22.9593ZM247.677 39.0681C246.032 39.0681 244.6 38.7295 243.381 38.0522C242.182 37.3556 241.253 36.4171 240.595 35.2368C239.956 34.0565 239.637 32.7213 239.637 31.2314C239.637 29.4899 239.985 28.0096 240.682 26.7906C241.398 25.5522 242.327 24.604 243.468 23.9461C244.61 23.2882 245.819 22.9593 247.097 22.9593C248.083 22.9593 249.012 23.1625 249.883 23.5688C250.773 23.9752 251.557 24.5363 252.234 25.2523C252.911 25.9489 253.443 26.7615 253.83 27.6903C254.237 28.6191 254.44 29.606 254.44 30.6509C254.421 31.1153 254.237 31.4926 253.888 31.7828C253.54 32.0731 253.134 32.2182 252.669 32.2182H241.582L240.711 29.3157H251.363L250.725 29.8962V29.1126C250.686 28.5514 250.483 28.0483 250.115 27.6033C249.767 27.1582 249.322 26.8099 248.78 26.5584C248.258 26.2875 247.696 26.152 247.097 26.152C246.516 26.152 245.974 26.2294 245.471 26.3842C244.968 26.539 244.533 26.8002 244.165 27.1679C243.797 27.5355 243.507 28.029 243.294 28.6482C243.081 29.2674 242.975 30.051 242.975 30.9992C242.975 32.0441 243.188 32.9342 243.614 33.6695C244.059 34.3854 244.62 34.9369 245.297 35.3239C245.994 35.6915 246.729 35.8753 247.503 35.8753C248.219 35.8753 248.79 35.8173 249.215 35.7012C249.641 35.5851 249.98 35.4497 250.231 35.2949C250.502 35.1207 250.744 34.9756 250.957 34.8595C251.305 34.6853 251.634 34.5983 251.944 34.5983C252.369 34.5983 252.718 34.7434 252.989 35.0336C253.279 35.3239 253.424 35.6625 253.424 36.0495C253.424 36.5719 253.153 37.046 252.611 37.4717C252.108 37.8974 251.402 38.2747 250.492 38.6037C249.583 38.9133 248.645 39.0681 247.677 39.0681Z" fill="#2A2A2A"/>
<path fill-rule="evenodd" clip-rule="evenodd" d="M300.69 27.8927L289.167 39.4162L286.286 36.5358L296.369 26.4525L286.286 16.3691L289.167 13.4888L300.69 25.0123C301.072 25.3943 301.286 25.9123 301.286 26.4525C301.286 26.9926 301.072 27.5107 300.69 27.8927Z" fill="#F5D18C"/>
</svg>
