<svg width="318" height="55" viewBox="0 0 318 55" fill="none" xmlns="http://www.w3.org/2000/svg">
<g id="Group 3">
<g id="Subtract">
<mask id="path-1-inside-1_1_247" fill="white">
<path fill-rule="evenodd" clip-rule="evenodd" d="M27.5 0C12.3122 0 0 12.3122 0 27.5C0 42.6878 12.3121 55 27.5 55H289.176C273.988 55 261.676 42.6878 261.676 27.5C261.676 12.3122 273.988 0 289.176 0H27.5Z"/>
</mask>
<path fill-rule="evenodd" clip-rule="evenodd" d="M27.5 0C12.3122 0 0 12.3122 0 27.5C0 42.6878 12.3121 55 27.5 55H289.176C273.988 55 261.676 42.6878 261.676 27.5C261.676 12.3122 273.988 0 289.176 0H27.5Z" fill="#F5D18C"/>
<path d="M1 27.5C1 12.8645 12.8645 1 27.5 1V-1C11.7599 -1 -1 11.7599 -1 27.5H1ZM27.5 54C12.8644 54 1 42.1355 1 27.5H-1C-1 43.2401 11.7599 56 27.5 56V54ZM289.176 54H27.5V56H289.176V54ZM289.176 54C274.541 54 262.676 42.1355 262.676 27.5H260.676C260.676 43.2401 273.436 56 289.176 56V54ZM262.676 27.5C262.676 12.8645 274.541 1 289.176 1V-1C273.436 -1 260.676 11.7599 260.676 27.5H262.676ZM27.5 1H289.176V-1H27.5V1Z" fill="#2A2A2A" mask="url(#path-1-inside-1_1_247)"/>
</g>
<circle id="Ellipse 4" cx="291.667" cy="27.6667" r="25.6667" fill="#2A2A2A"/>
<path id="Tables" d="M110.249 38.7778C109.707 38.7778 109.262 38.6134 108.914 38.2844C108.566 37.9361 108.391 37.5104 108.391 37.0073V20.1729H112.165V37.0073C112.165 37.5104 111.981 37.9361 111.613 38.2844C111.265 38.6134 110.81 38.7778 110.249 38.7778ZM103.835 21.7983C103.331 21.7983 102.906 21.6435 102.557 21.3339C102.228 21.0243 102.064 20.618 102.064 20.1149C102.064 19.6118 102.228 19.2151 102.557 18.9248C102.906 18.6152 103.331 18.4604 103.835 18.4604H116.722C117.225 18.4604 117.641 18.6152 117.97 18.9248C118.318 19.2344 118.492 19.6408 118.492 20.1439C118.492 20.647 118.318 21.0533 117.97 21.3629C117.641 21.6532 117.225 21.7983 116.722 21.7983H103.835ZM131.07 22.9593C131.574 22.9593 131.99 23.1238 132.319 23.4527C132.647 23.7817 132.812 24.2074 132.812 24.7298V37.0073C132.812 37.5104 132.647 37.9361 132.319 38.2844C131.99 38.6134 131.574 38.7778 131.07 38.7778C130.567 38.7778 130.151 38.6134 129.822 38.2844C129.493 37.9361 129.329 37.5104 129.329 37.0073V35.5851L129.968 35.8463C129.968 36.0979 129.832 36.4075 129.561 36.7751C129.29 37.1234 128.923 37.4717 128.458 37.82C127.994 38.1683 127.442 38.4682 126.804 38.7198C126.185 38.952 125.507 39.0681 124.772 39.0681C123.437 39.0681 122.228 38.7295 121.144 38.0522C120.06 37.3556 119.199 36.4075 118.561 35.2078C117.942 33.9887 117.632 32.5955 117.632 31.0282C117.632 29.4415 117.942 28.0483 118.561 26.8486C119.199 25.6296 120.051 24.6814 121.115 24.0042C122.179 23.3076 123.36 22.9593 124.656 22.9593C125.488 22.9593 126.252 23.0851 126.949 23.3366C127.646 23.5882 128.245 23.9074 128.748 24.2944C129.271 24.6814 129.668 25.0781 129.939 25.4845C130.229 25.8715 130.374 26.2004 130.374 26.4713L129.329 26.8486V24.7298C129.329 24.2267 129.493 23.8107 129.822 23.4817C130.151 23.1334 130.567 22.9593 131.07 22.9593ZM125.207 35.8753C126.059 35.8753 126.804 35.6625 127.442 35.2368C128.081 34.8111 128.574 34.2306 128.923 33.4953C129.29 32.76 129.474 31.9376 129.474 31.0282C129.474 30.0994 129.29 29.2674 128.923 28.5321C128.574 27.7968 128.081 27.2163 127.442 26.7906C126.804 26.3649 126.059 26.152 125.207 26.152C124.375 26.152 123.64 26.3649 123.002 26.7906C122.363 27.2163 121.86 27.7968 121.492 28.5321C121.144 29.2674 120.97 30.0994 120.97 31.0282C120.97 31.9376 121.144 32.76 121.492 33.4953C121.86 34.2306 122.363 34.8111 123.002 35.2368C123.64 35.6625 124.375 35.8753 125.207 35.8753ZM144.623 22.9593C145.978 22.9593 147.187 23.3076 148.251 24.0042C149.335 24.6814 150.186 25.6199 150.805 26.8196C151.444 28.0193 151.763 29.4125 151.763 30.9992C151.763 32.5859 151.444 33.9887 150.805 35.2078C150.186 36.4075 149.344 37.3556 148.28 38.0522C147.235 38.7295 146.055 39.0681 144.739 39.0681C143.965 39.0681 143.24 38.9423 142.562 38.6908C141.885 38.4392 141.285 38.1199 140.763 37.7329C140.26 37.3459 139.863 36.9589 139.573 36.5719C139.302 36.1656 139.166 35.827 139.166 35.5561L140.066 35.1788V37.2976C140.066 37.8007 139.902 38.2264 139.573 38.5747C139.244 38.9036 138.828 39.0681 138.325 39.0681C137.822 39.0681 137.406 38.9036 137.077 38.5747C136.748 38.2457 136.583 37.82 136.583 37.2976V19.07C136.583 18.5669 136.748 18.1508 137.077 17.8219C137.406 17.4736 137.822 17.2995 138.325 17.2995C138.828 17.2995 139.244 17.4736 139.573 17.8219C139.902 18.1508 140.066 18.5669 140.066 19.07V26.4423L139.573 26.1811C139.573 25.9295 139.708 25.6296 139.979 25.2813C140.25 24.9136 140.618 24.5557 141.082 24.2074C141.546 23.8397 142.079 23.5398 142.678 23.3076C143.298 23.0754 143.946 22.9593 144.623 22.9593ZM144.188 26.152C143.336 26.152 142.591 26.3649 141.953 26.7906C141.314 27.2163 140.811 27.7968 140.443 28.5321C140.095 29.248 139.921 30.0704 139.921 30.9992C139.921 31.9086 140.095 32.7407 140.443 33.4953C140.811 34.2306 141.314 34.8111 141.953 35.2368C142.591 35.6625 143.336 35.8753 144.188 35.8753C145.039 35.8753 145.774 35.6625 146.394 35.2368C147.032 34.8111 147.526 34.2306 147.874 33.4953C148.241 32.7407 148.425 31.9086 148.425 30.9992C148.425 30.0704 148.241 29.248 147.874 28.5321C147.526 27.7968 147.032 27.2163 146.394 26.7906C145.774 26.3649 145.039 26.152 144.188 26.152ZM158.582 37.0073C158.582 37.5104 158.408 37.9361 158.059 38.2844C157.731 38.6134 157.315 38.7778 156.811 38.7778C156.328 38.7778 155.921 38.6134 155.592 38.2844C155.263 37.9361 155.099 37.5104 155.099 37.0073V19.07C155.099 18.5669 155.263 18.1508 155.592 17.8219C155.941 17.4736 156.366 17.2995 156.869 17.2995C157.373 17.2995 157.779 17.4736 158.089 17.8219C158.417 18.1508 158.582 18.5669 158.582 19.07V37.0073ZM169.663 39.0681C168.018 39.0681 166.586 38.7295 165.367 38.0522C164.167 37.3556 163.238 36.4171 162.581 35.2368C161.942 34.0565 161.623 32.7213 161.623 31.2314C161.623 29.4899 161.971 28.0096 162.668 26.7906C163.384 25.5522 164.312 24.604 165.454 23.9461C166.596 23.2882 167.805 22.9593 169.082 22.9593C170.069 22.9593 170.998 23.1625 171.869 23.5688C172.759 23.9752 173.542 24.5363 174.22 25.2523C174.897 25.9489 175.429 26.7615 175.816 27.6903C176.222 28.6191 176.425 29.606 176.425 30.6509C176.406 31.1153 176.222 31.4926 175.874 31.7828C175.526 32.0731 175.119 32.2182 174.655 32.2182H163.567L162.697 29.3157H173.349L172.71 29.8962V29.1126C172.672 28.5514 172.468 28.0483 172.101 27.6033C171.752 27.1582 171.307 26.8099 170.766 26.5584C170.243 26.2875 169.682 26.152 169.082 26.152C168.502 26.152 167.96 26.2294 167.457 26.3842C166.954 26.539 166.518 26.8002 166.151 27.1679C165.783 27.5355 165.493 28.029 165.28 28.6482C165.067 29.2674 164.961 30.051 164.961 30.9992C164.961 32.0441 165.173 32.9342 165.599 33.6695C166.044 34.3854 166.605 34.9369 167.283 35.3239C167.979 35.6915 168.714 35.8753 169.488 35.8753C170.204 35.8753 170.775 35.8173 171.201 35.7012C171.627 35.5851 171.965 35.4497 172.217 35.2949C172.488 35.1207 172.73 34.9756 172.942 34.8595C173.291 34.6853 173.62 34.5983 173.929 34.5983C174.355 34.5983 174.703 34.7434 174.974 35.0336C175.264 35.3239 175.41 35.6625 175.41 36.0495C175.41 36.5719 175.139 37.046 174.597 37.4717C174.094 37.8974 173.387 38.2747 172.478 38.6037C171.569 38.9133 170.63 39.0681 169.663 39.0681ZM178.569 36.3688C178.375 36.0979 178.288 35.7496 178.307 35.3239C178.327 34.8982 178.578 34.5305 179.062 34.2209C179.372 34.0274 179.701 33.95 180.049 33.9887C180.397 34.0081 180.736 34.1822 181.065 34.5112C181.626 35.0723 182.216 35.5077 182.835 35.8173C183.455 36.1269 184.229 36.2817 185.157 36.2817C185.448 36.2623 185.767 36.2236 186.115 36.1656C186.463 36.0882 186.763 35.9334 187.015 35.7012C187.286 35.4497 187.421 35.0723 187.421 34.5692C187.421 34.1435 187.276 33.8049 186.986 33.5534C186.696 33.3018 186.309 33.089 185.825 32.9148C185.361 32.7407 184.838 32.5762 184.258 32.4214C183.658 32.2472 183.039 32.0537 182.4 31.8409C181.781 31.628 181.21 31.3571 180.688 31.0282C180.165 30.6799 179.739 30.2252 179.41 29.664C179.081 29.1029 178.917 28.3966 178.917 27.5452C178.917 26.5777 179.188 25.7554 179.73 25.0781C180.271 24.4009 180.968 23.8784 181.819 23.5108C182.69 23.1431 183.6 22.9593 184.548 22.9593C185.148 22.9593 185.777 23.0367 186.434 23.1915C187.092 23.3269 187.721 23.5591 188.321 23.8881C188.921 24.1977 189.424 24.6137 189.83 25.1362C190.043 25.4264 190.169 25.7747 190.208 26.1811C190.246 26.5874 190.063 26.955 189.656 27.284C189.366 27.5162 189.027 27.6226 188.64 27.6033C188.253 27.5646 187.934 27.4291 187.683 27.1969C187.354 26.7712 186.909 26.4326 186.347 26.1811C185.806 25.9295 185.177 25.8037 184.461 25.8037C184.171 25.8037 183.851 25.8424 183.503 25.9198C183.174 25.9779 182.884 26.123 182.632 26.3552C182.381 26.5681 182.255 26.9163 182.255 27.4001C182.255 27.8451 182.4 28.2031 182.69 28.474C182.98 28.7256 183.367 28.9384 183.851 29.1126C184.354 29.2674 184.886 29.4222 185.448 29.577C186.028 29.7318 186.618 29.9156 187.218 30.1284C187.818 30.3413 188.369 30.6219 188.873 30.9702C189.376 31.3184 189.782 31.7732 190.092 32.3343C190.401 32.8761 190.556 33.5727 190.556 34.4241C190.556 35.411 190.266 36.2527 189.685 36.9493C189.105 37.6459 188.379 38.178 187.508 38.5456C186.638 38.8939 185.748 39.0681 184.838 39.0681C183.696 39.0681 182.555 38.8746 181.413 38.4876C180.271 38.0812 179.323 37.375 178.569 36.3688Z" fill="#2A2A2A"/>
<g id="weui:arrow-filled">
<path id="Vector" fill-rule="evenodd" clip-rule="evenodd" d="M300.69 27.8927L289.167 39.4162L286.286 36.5358L296.369 26.4525L286.286 16.3691L289.167 13.4888L300.69 25.0123C301.072 25.3943 301.286 25.9123 301.286 26.4525C301.286 26.9926 301.072 27.5107 300.69 27.8927Z" fill="#F5D18C"/>
</g>
</g>
</svg>
