<svg width="318" height="55" viewBox="0 0 318 55" fill="none" xmlns="http://www.w3.org/2000/svg">
<mask id="path-1-inside-1_1_255" fill="white">
<path fill-rule="evenodd" clip-rule="evenodd" d="M27.5 0C12.3122 0 0 12.3122 0 27.5C0 42.6878 12.3121 55 27.5 55H289.176C273.988 55 261.676 42.6878 261.676 27.5C261.676 12.3122 273.988 0 289.176 0H27.5Z"/>
</mask>
<path fill-rule="evenodd" clip-rule="evenodd" d="M27.5 0C12.3122 0 0 12.3122 0 27.5C0 42.6878 12.3121 55 27.5 55H289.176C273.988 55 261.676 42.6878 261.676 27.5C261.676 12.3122 273.988 0 289.176 0H27.5Z" fill="#F5D18C"/>
<path d="M1 27.5C1 12.8645 12.8645 1 27.5 1V-1C11.7599 -1 -1 11.7599 -1 27.5H1ZM27.5 54C12.8644 54 1 42.1355 1 27.5H-1C-1 43.2401 11.7599 56 27.5 56V54ZM289.176 54H27.5V56H289.176V54ZM289.176 54C274.541 54 262.676 42.1355 262.676 27.5H260.676C260.676 43.2401 273.436 56 289.176 56V54ZM262.676 27.5C262.676 12.8645 274.541 1 289.176 1V-1C273.436 -1 260.676 11.7599 260.676 27.5H262.676ZM27.5 1H289.176V-1H27.5V1Z" fill="#2A2A2A" mask="url(#path-1-inside-1_1_255)"/>
<circle cx="291.667" cy="27.6667" r="25.6667" fill="#2A2A2A"/>
<path d="M81.0983 18.3734C81.5434 18.3734 81.9691 18.5475 82.3754 18.8958C82.7818 19.2248 82.9849 19.6795 82.9849 20.26C82.9849 20.4341 82.9559 20.6276 82.8979 20.8405L77.18 37.6749C77.0639 38.0232 76.851 38.2941 76.5414 38.4876C76.2512 38.6617 75.9416 38.7585 75.6126 38.7778C75.2837 38.7778 74.9547 38.6811 74.6258 38.4876C74.3162 38.2941 74.0743 38.0135 73.9002 37.6459L69.6045 27.8935L69.8657 28.0677L65.6281 37.6459C65.4539 38.0135 65.2024 38.2941 64.8734 38.4876C64.5638 38.6811 64.2446 38.7778 63.9156 38.7778C63.606 38.7585 63.2964 38.6617 62.9868 38.4876C62.6772 38.2941 62.4644 38.0232 62.3483 37.6749L56.6304 20.8405C56.5723 20.6276 56.5433 20.4341 56.5433 20.26C56.5433 19.6795 56.7465 19.2248 57.1528 18.8958C57.5785 18.5475 58.0139 18.3734 58.459 18.3734C58.8266 18.3734 59.1652 18.4701 59.4748 18.6636C59.8038 18.8571 60.0263 19.1377 60.1424 19.5053L64.7573 33.4953L64.1188 33.4663L68.2403 23.5688C68.3951 23.2205 68.6176 22.9496 68.9079 22.7561C69.1981 22.5433 69.5271 22.4465 69.8947 22.4659C70.2624 22.4465 70.5913 22.5433 70.8816 22.7561C71.1718 22.9496 71.3847 23.2205 71.5201 23.5688L75.2934 33.0309L74.829 33.3212L79.3859 19.5053C79.502 19.1377 79.7245 18.8571 80.0534 18.6636C80.3824 18.4701 80.7307 18.3734 81.0983 18.3734ZM88.6262 37.0073C88.6262 37.5104 88.4617 37.9361 88.1328 38.2844C87.8038 38.6134 87.3878 38.7778 86.8847 38.7778C86.3816 38.7778 85.9656 38.6134 85.6366 38.2844C85.3077 37.9361 85.1432 37.5104 85.1432 37.0073V25.0201C85.1432 24.517 85.3077 24.1009 85.6366 23.772C85.9656 23.4237 86.3816 23.2495 86.8847 23.2495C87.3878 23.2495 87.8038 23.4237 88.1328 23.772C88.4617 24.1009 88.6262 24.517 88.6262 25.0201V37.0073ZM86.8557 21.3629C86.1978 21.3629 85.7334 21.2565 85.4625 21.0437C85.1916 20.8308 85.0561 20.4535 85.0561 19.9117V19.3602C85.0561 18.7991 85.2013 18.4217 85.4915 18.2282C85.8011 18.0154 86.2655 17.909 86.8847 17.909C87.5619 17.909 88.036 18.0154 88.3069 18.2282C88.5778 18.4411 88.7133 18.8184 88.7133 19.3602V19.9117C88.7133 20.4728 88.5681 20.8598 88.2779 21.0727C87.9876 21.2662 87.5136 21.3629 86.8557 21.3629ZM100.507 22.9593C101.939 22.9593 103.022 23.2592 103.758 23.8591C104.512 24.4589 105.025 25.2619 105.296 26.2681C105.586 27.255 105.731 28.3579 105.731 29.577V37.0073C105.731 37.5104 105.567 37.9361 105.238 38.2844C104.909 38.6134 104.493 38.7778 103.99 38.7778C103.487 38.7778 103.071 38.6134 102.742 38.2844C102.413 37.9361 102.248 37.5104 102.248 37.0073V29.577C102.248 28.9384 102.161 28.3676 101.987 27.8645C101.832 27.342 101.542 26.926 101.116 26.6164C100.691 26.3068 100.081 26.152 99.2878 26.152C98.5138 26.152 97.8559 26.3068 97.3141 26.6164C96.7917 26.926 96.3853 27.342 96.0951 27.8645C95.8242 28.3676 95.6887 28.9384 95.6887 29.577V37.0073C95.6887 37.5104 95.5243 37.9361 95.1953 38.2844C94.8664 38.6134 94.4504 38.7778 93.9473 38.7778C93.4442 38.7778 93.0281 38.6134 92.6992 38.2844C92.3702 37.9361 92.2058 37.5104 92.2058 37.0073V25.0201C92.2058 24.517 92.3702 24.1009 92.6992 23.772C93.0281 23.4237 93.4442 23.2495 93.9473 23.2495C94.4504 23.2495 94.8664 23.4237 95.1953 23.772C95.5243 24.1009 95.6887 24.517 95.6887 25.0201V26.2681L95.2534 26.1811C95.4275 25.8521 95.6791 25.5038 96.008 25.1362C96.337 24.7492 96.724 24.3912 97.169 24.0622C97.6141 23.7333 98.1172 23.4721 98.6783 23.2786C99.2395 23.0657 99.849 22.9593 100.507 22.9593ZM122.209 17.2995C122.712 17.2995 123.128 17.4639 123.457 17.7929C123.786 18.1218 123.95 18.5475 123.95 19.07V37.0073C123.95 37.5104 123.786 37.9361 123.457 38.2844C123.128 38.6134 122.712 38.7778 122.209 38.7778C121.706 38.7778 121.29 38.6134 120.961 38.2844C120.632 37.9361 120.467 37.5104 120.467 37.0073V35.5851L121.106 35.8463C121.106 36.0979 120.97 36.4075 120.7 36.7751C120.429 37.1234 120.061 37.4717 119.597 37.82C119.132 38.1683 118.581 38.4682 117.942 38.7198C117.323 38.952 116.646 39.0681 115.91 39.0681C114.575 39.0681 113.366 38.7295 112.282 38.0522C111.199 37.3556 110.338 36.4075 109.699 35.2078C109.08 33.9887 108.77 32.5955 108.77 31.0282C108.77 29.4415 109.08 28.0483 109.699 26.8486C110.338 25.6296 111.189 24.6814 112.253 24.0042C113.318 23.3076 114.498 22.9593 115.794 22.9593C116.626 22.9593 117.391 23.0851 118.087 23.3366C118.784 23.5882 119.384 23.9074 119.887 24.2944C120.409 24.6814 120.806 25.0781 121.077 25.4845C121.367 25.8715 121.512 26.2004 121.512 26.4713L120.467 26.8486V19.07C120.467 18.5669 120.632 18.1508 120.961 17.8219C121.29 17.4736 121.706 17.2995 122.209 17.2995ZM116.346 35.8753C117.197 35.8753 117.942 35.6625 118.581 35.2368C119.219 34.8111 119.713 34.2306 120.061 33.4953C120.429 32.76 120.612 31.9376 120.612 31.0282C120.612 30.0994 120.429 29.2674 120.061 28.5321C119.713 27.7968 119.219 27.2163 118.581 26.7906C117.942 26.3649 117.197 26.152 116.346 26.152C115.514 26.152 114.778 26.3649 114.14 26.7906C113.501 27.2163 112.998 27.7968 112.631 28.5321C112.282 29.2674 112.108 30.0994 112.108 31.0282C112.108 31.9376 112.282 32.76 112.631 33.4953C112.998 34.2306 113.501 34.8111 114.14 35.2368C114.778 35.6625 115.514 35.8753 116.346 35.8753ZM142.785 31.0282C142.785 32.6149 142.427 34.0178 141.711 35.2368C141.015 36.4365 140.067 37.375 138.867 38.0522C137.687 38.7295 136.361 39.0681 134.891 39.0681C133.42 39.0681 132.085 38.7295 130.885 38.0522C129.705 37.375 128.757 36.4365 128.041 35.2368C127.344 34.0178 126.996 32.6149 126.996 31.0282C126.996 29.4415 127.344 28.0483 128.041 26.8486C128.757 25.6296 129.705 24.6814 130.885 24.0042C132.085 23.3076 133.42 22.9593 134.891 22.9593C136.361 22.9593 137.687 23.3076 138.867 24.0042C140.067 24.6814 141.015 25.6296 141.711 26.8486C142.427 28.0483 142.785 29.4415 142.785 31.0282ZM139.302 31.0282C139.302 30.0414 139.099 29.19 138.693 28.474C138.306 27.7387 137.774 27.1679 137.097 26.7615C136.439 26.3552 135.703 26.152 134.891 26.152C134.078 26.152 133.333 26.3552 132.656 26.7615C131.998 27.1679 131.466 27.7387 131.059 28.474C130.672 29.19 130.479 30.0414 130.479 31.0282C130.479 31.9957 130.672 32.8471 131.059 33.5824C131.466 34.2983 131.998 34.8595 132.656 35.2658C133.333 35.6722 134.078 35.8753 134.891 35.8753C135.703 35.8753 136.439 35.6722 137.097 35.2658C137.774 34.8595 138.306 34.2983 138.693 33.5824C139.099 32.8471 139.302 31.9957 139.302 31.0282ZM163.713 23.2495C164.158 23.2495 164.545 23.4237 164.874 23.772C165.203 24.1009 165.367 24.5266 165.367 25.0491C165.367 25.1845 165.358 25.3103 165.338 25.4264C165.319 25.5232 165.29 25.6199 165.251 25.7167L160.811 37.6749C160.675 38.0619 160.433 38.3618 160.085 38.5747C159.737 38.7682 159.369 38.8359 158.982 38.7778C158.324 38.7391 157.831 38.3715 157.502 37.6749L154.628 29.4028L155.383 29.4318L152.684 37.6749C152.355 38.3715 151.861 38.7391 151.203 38.7778C150.836 38.8359 150.468 38.7682 150.1 38.5747C149.752 38.3618 149.51 38.0619 149.375 37.6749L144.934 25.7167C144.857 25.5038 144.818 25.2813 144.818 25.0491C144.818 24.5847 144.973 24.1687 145.282 23.801C145.592 23.4334 146.018 23.2495 146.559 23.2495C146.927 23.2495 147.256 23.3366 147.546 23.5108C147.836 23.6849 148.04 23.9655 148.156 24.3525L151.668 33.8726L150.942 33.8146L153.583 26.6455C153.893 25.9295 154.425 25.5715 155.18 25.5715C155.605 25.5715 155.925 25.6683 156.138 25.8618C156.37 26.0359 156.554 26.2972 156.689 26.6455L159.33 33.8146L158.459 33.9307L162.03 24.3525C162.262 23.6172 162.823 23.2495 163.713 23.2495ZM175.348 36.3688C175.154 36.0979 175.067 35.7496 175.086 35.3239C175.106 34.8982 175.357 34.5305 175.841 34.2209C176.151 34.0274 176.48 33.95 176.828 33.9887C177.176 34.0081 177.515 34.1822 177.844 34.5112C178.405 35.0723 178.995 35.5077 179.614 35.8173C180.233 36.1269 181.007 36.2817 181.936 36.2817C182.227 36.2623 182.546 36.2236 182.894 36.1656C183.242 36.0882 183.542 35.9334 183.794 35.7012C184.065 35.4497 184.2 35.0723 184.2 34.5692C184.2 34.1435 184.055 33.8049 183.765 33.5534C183.475 33.3018 183.088 33.089 182.604 32.9148C182.139 32.7407 181.617 32.5762 181.037 32.4214C180.437 32.2472 179.817 32.0537 179.179 31.8409C178.56 31.628 177.989 31.3571 177.466 31.0282C176.944 30.6799 176.518 30.2252 176.189 29.664C175.86 29.1029 175.696 28.3966 175.696 27.5452C175.696 26.5777 175.967 25.7554 176.509 25.0781C177.05 24.4009 177.747 23.8784 178.598 23.5108C179.469 23.1431 180.379 22.9593 181.327 22.9593C181.927 22.9593 182.555 23.0367 183.213 23.1915C183.871 23.3269 184.5 23.5591 185.1 23.8881C185.7 24.1977 186.203 24.6137 186.609 25.1362C186.822 25.4264 186.948 25.7747 186.987 26.1811C187.025 26.5874 186.841 26.955 186.435 27.284C186.145 27.5162 185.806 27.6226 185.419 27.6033C185.032 27.5646 184.713 27.4291 184.461 27.1969C184.132 26.7712 183.687 26.4326 183.126 26.1811C182.584 25.9295 181.956 25.8037 181.24 25.8037C180.949 25.8037 180.63 25.8424 180.282 25.9198C179.953 25.9779 179.663 26.123 179.411 26.3552C179.16 26.5681 179.034 26.9163 179.034 27.4001C179.034 27.8451 179.179 28.2031 179.469 28.474C179.759 28.7256 180.146 28.9384 180.63 29.1126C181.133 29.2674 181.665 29.4222 182.227 29.577C182.807 29.7318 183.397 29.9156 183.997 30.1284C184.597 30.3413 185.148 30.6219 185.651 30.9702C186.155 31.3184 186.561 31.7732 186.87 32.3343C187.18 32.8761 187.335 33.5727 187.335 34.4241C187.335 35.411 187.045 36.2527 186.464 36.9493C185.884 37.6459 185.158 38.178 184.287 38.5456C183.417 38.8939 182.526 39.0681 181.617 39.0681C180.475 39.0681 179.334 38.8746 178.192 38.4876C177.05 38.0812 176.102 37.375 175.348 36.3688ZM197.564 39.0681C195.919 39.0681 194.487 38.7295 193.268 38.0522C192.069 37.3556 191.14 36.4171 190.482 35.2368C189.843 34.0565 189.524 32.7213 189.524 31.2314C189.524 29.4899 189.872 28.0096 190.569 26.7906C191.285 25.5522 192.214 24.604 193.355 23.9461C194.497 23.2882 195.706 22.9593 196.983 22.9593C197.97 22.9593 198.899 23.1625 199.77 23.5688C200.66 23.9752 201.444 24.5363 202.121 25.2523C202.798 25.9489 203.33 26.7615 203.717 27.6903C204.123 28.6191 204.327 29.606 204.327 30.6509C204.307 31.1153 204.123 31.4926 203.775 31.7828C203.427 32.0731 203.021 32.2182 202.556 32.2182H191.469L190.598 29.3157H201.25L200.611 29.8962V29.1126C200.573 28.5514 200.37 28.0483 200.002 27.6033C199.654 27.1582 199.209 26.8099 198.667 26.5584C198.144 26.2875 197.583 26.152 196.983 26.152C196.403 26.152 195.861 26.2294 195.358 26.3842C194.855 26.539 194.42 26.8002 194.052 27.1679C193.684 27.5355 193.394 28.029 193.181 28.6482C192.968 29.2674 192.862 30.051 192.862 30.9992C192.862 32.0441 193.075 32.9342 193.5 33.6695C193.945 34.3854 194.507 34.9369 195.184 35.3239C195.88 35.6915 196.616 35.8753 197.39 35.8753C198.106 35.8753 198.676 35.8173 199.102 35.7012C199.528 35.5851 199.867 35.4497 200.118 35.2949C200.389 35.1207 200.631 34.9756 200.844 34.8595C201.192 34.6853 201.521 34.5983 201.831 34.5983C202.256 34.5983 202.605 34.7434 202.875 35.0336C203.166 35.3239 203.311 35.6625 203.311 36.0495C203.311 36.5719 203.04 37.046 202.498 37.4717C201.995 37.8974 201.289 38.2747 200.379 38.6037C199.47 38.9133 198.531 39.0681 197.564 39.0681ZM220.196 22.9593C220.699 22.9593 221.115 23.1238 221.444 23.4527C221.773 23.7817 221.937 24.2074 221.937 24.7298V37.0073C221.937 37.5104 221.773 37.9361 221.444 38.2844C221.115 38.6134 220.699 38.7778 220.196 38.7778C219.693 38.7778 219.277 38.6134 218.948 38.2844C218.619 37.9361 218.454 37.5104 218.454 37.0073V35.5851L219.093 35.8463C219.093 36.0979 218.958 36.4075 218.687 36.7751C218.416 37.1234 218.048 37.4717 217.584 37.82C217.119 38.1683 216.568 38.4682 215.929 38.7198C215.31 38.952 214.633 39.0681 213.898 39.0681C212.562 39.0681 211.353 38.7295 210.269 38.0522C209.186 37.3556 208.325 36.4075 207.686 35.2078C207.067 33.9887 206.757 32.5955 206.757 31.0282C206.757 29.4415 207.067 28.0483 207.686 26.8486C208.325 25.6296 209.176 24.6814 210.24 24.0042C211.305 23.3076 212.485 22.9593 213.782 22.9593C214.614 22.9593 215.378 23.0851 216.074 23.3366C216.771 23.5882 217.371 23.9074 217.874 24.2944C218.396 24.6814 218.793 25.0781 219.064 25.4845C219.354 25.8715 219.499 26.2004 219.499 26.4713L218.454 26.8486V24.7298C218.454 24.2267 218.619 23.8107 218.948 23.4817C219.277 23.1334 219.693 22.9593 220.196 22.9593ZM214.333 35.8753C215.184 35.8753 215.929 35.6625 216.568 35.2368C217.206 34.8111 217.7 34.2306 218.048 33.4953C218.416 32.76 218.6 31.9376 218.6 31.0282C218.6 30.0994 218.416 29.2674 218.048 28.5321C217.7 27.7968 217.206 27.2163 216.568 26.7906C215.929 26.3649 215.184 26.152 214.333 26.152C213.501 26.152 212.766 26.3649 212.127 26.7906C211.489 27.2163 210.985 27.7968 210.618 28.5321C210.269 29.2674 210.095 30.0994 210.095 31.0282C210.095 31.9376 210.269 32.76 210.618 33.4953C210.985 34.2306 211.489 34.8111 212.127 35.2368C212.766 35.6625 213.501 35.8753 214.333 35.8753ZM225.883 23.5398H232.762C233.226 23.5398 233.613 23.6946 233.923 24.0042C234.232 24.3138 234.387 24.7008 234.387 25.1652C234.387 25.6102 234.232 25.9876 233.923 26.2972C233.613 26.5874 233.226 26.7325 232.762 26.7325H225.883C225.418 26.7325 225.031 26.5777 224.722 26.2681C224.412 25.9585 224.257 25.5715 224.257 25.1071C224.257 24.6621 224.412 24.2944 224.722 24.0042C225.031 23.6946 225.418 23.5398 225.883 23.5398ZM228.988 19.9117C229.492 19.9117 229.898 20.0858 230.208 20.4341C230.536 20.7631 230.701 21.1791 230.701 21.6822V34.5983C230.701 34.8692 230.749 35.0917 230.846 35.2658C230.962 35.44 231.107 35.5658 231.281 35.6431C231.475 35.7205 231.678 35.7592 231.891 35.7592C232.123 35.7592 232.336 35.7205 232.53 35.6431C232.723 35.5464 232.946 35.498 233.197 35.498C233.468 35.498 233.71 35.6238 233.923 35.8753C234.155 36.1269 234.271 36.4752 234.271 36.9202C234.271 37.462 233.971 37.9071 233.371 38.2554C232.791 38.6037 232.162 38.7778 231.485 38.7778C231.078 38.7778 230.624 38.7488 230.12 38.6908C229.637 38.6134 229.172 38.4489 228.727 38.1973C228.302 37.9264 227.944 37.5201 227.653 36.9783C227.363 36.4365 227.218 35.6915 227.218 34.7434V21.6822C227.218 21.1791 227.382 20.7631 227.711 20.4341C228.06 20.0858 228.485 19.9117 228.988 19.9117Z" fill="#2A2A2A"/>
<path fill-rule="evenodd" clip-rule="evenodd" d="M300.69 27.8927L289.167 39.4162L286.286 36.5358L296.369 26.4525L286.286 16.3691L289.167 13.4888L300.69 25.0123C301.072 25.3943 301.286 25.9123 301.286 26.4525C301.286 26.9926 301.072 27.5107 300.69 27.8927Z" fill="#F5D18C"/>
</svg>
