<svg width="89" height="89" viewBox="0 0 89 89" fill="none" xmlns="http://www.w3.org/2000/svg">
<path d="M13.7951 10.3388L15.8346 17.2437H70.1766C76.9999 17.2437 82.2101 23.6109 80.2447 30.26L74.1074 51.0266C72.802 55.4544 68.6524 58.4062 64.0393 58.4062H30.0858C25.4726 58.4062 21.3267 55.4544 20.0176 51.0266L8.45876 11.9148C8.34426 11.5616 8.30166 11.189 8.33346 10.819C8.36527 10.449 8.47085 10.0892 8.64397 9.76065C8.81709 9.43212 9.05425 9.1416 9.34145 8.9062C9.62865 8.6708 9.96009 8.4953 10.3162 8.39005C10.6723 8.2848 11.0459 8.25193 11.4149 8.29338C11.784 8.33483 12.1409 8.44976 12.4648 8.63139C12.7887 8.81302 13.073 9.05767 13.3008 9.35092C13.5286 9.64416 13.6991 9.98006 13.7951 10.3388ZM38.9376 34.3021C38.1999 34.3021 37.4925 34.5951 36.9709 35.1167C36.4493 35.6383 36.1563 36.3457 36.1563 37.0833C36.1563 37.8209 36.4493 38.5284 36.9709 39.0499C37.4925 39.5715 38.1999 39.8646 38.9376 39.8646H53.7709C54.5085 39.8646 55.2159 39.5715 55.7375 39.0499C56.2591 38.5284 56.5521 37.8209 56.5521 37.0833C56.5521 36.3457 56.2591 35.6383 55.7375 35.1167C55.2159 34.5951 54.5085 34.3021 53.7709 34.3021H38.9376ZM31.5209 63.9687C29.308 63.9687 27.1857 64.8478 25.621 66.4126C24.0562 67.9773 23.1771 70.0996 23.1771 72.3125C23.1771 74.5254 24.0562 76.6476 25.621 78.2124C27.1857 79.7772 29.308 80.6562 31.5209 80.6562C33.7338 80.6562 35.8561 79.7772 37.4208 78.2124C38.9856 76.6476 39.8646 74.5254 39.8646 72.3125C39.8646 70.0996 38.9856 67.9773 37.4208 66.4126C35.8561 64.8478 33.7338 63.9687 31.5209 63.9687ZM61.1876 63.9687C58.9747 63.9687 56.8524 64.8478 55.2876 66.4126C53.7229 67.9773 52.8438 70.0996 52.8438 72.3125C52.8438 74.5254 53.7229 76.6476 55.2876 78.2124C56.8524 79.7772 58.9747 80.6562 61.1876 80.6562C63.4005 80.6562 65.5227 79.7772 67.0875 78.2124C68.6522 76.6476 69.5313 74.5254 69.5313 72.3125C69.5313 70.0996 68.6522 67.9773 67.0875 66.4126C65.5227 64.8478 63.4005 63.9687 61.1876 63.9687Z" fill="#9B6B41"/>
</svg>
