<svg width="170" height="163" viewBox="0 0 170 163" fill="none" xmlns="http://www.w3.org/2000/svg">
<path d="M55 23.5C55 10.5213 65.5213 0 78.5 0C91.4787 0 102 10.5213 102 23.5V86H55V23.5Z" fill="#F2EAE2"/>
<path d="M19.9475 57.8316C10.7108 48.5948 10.7108 33.6191 19.9475 24.3823C29.1843 15.1456 44.16 15.1456 53.3967 24.3823L97.2988 68.2844L63.8496 101.734L19.9475 57.8316Z" fill="#F2EAE2"/>
<path d="M23.5 106C10.5213 106 0 95.4787 0 82.5C0 69.5213 10.5213 59 23.5 59L86 59V106H23.5Z" fill="#F2EAE2"/>
<path d="M56.0869 140.917C46.8502 150.153 31.8744 150.153 22.6377 140.917C13.4009 131.68 13.4009 116.704 22.6377 107.467L66.5398 63.5653L99.989 97.0145L56.0869 140.917Z" fill="#F2EAE2"/>
<path d="M112 139.5C112 152.479 101.479 163 88.5 163C75.5213 163 65 152.479 65 139.5L65 77L112 77L112 139.5Z" fill="#F2EAE2"/>
<path d="M152.743 104.511C161.979 113.748 161.979 128.723 152.743 137.96C143.506 147.197 128.53 147.197 119.293 137.96L75.3913 94.058L108.841 60.6088L152.743 104.511Z" fill="#F2EAE2"/>
<path d="M146 53C159.255 53 170 63.7452 170 77C170 90.2548 159.255 101 146 101L84 101L84 53L146 53Z" fill="#F2EAE2"/>
<path d="M108.946 16.7246C118.182 7.48789 133.158 7.48787 142.395 16.7246C151.632 25.9614 151.632 40.9371 142.395 50.1738L98.4927 94.0759L65.0435 60.6267L108.946 16.7246Z" fill="#F2EAE2"/>
</svg>
